<svg width="74" height="53" viewBox="0 0 74 53" fill="none" xmlns="http://www.w3.org/2000/svg">
<path d="M14.7524 1.63384C17.2782 1.11016 19.8029 0.8012 22.3262 0.760647C23.1851 0.765117 23.8785 1.62765 23.8729 2.70127C23.8081 4.84824 23.5822 6.99438 23.1418 9.08571C20.0865 8.21089 16.9743 7.92628 13.8611 7.85639C13.9229 6.29992 13.77 4.74232 13.563 3.23813C13.4056 2.53944 13.9464 1.79069 14.7524 1.63384Z" fill="url(#paint0_linear_39_2367)"/>
<path d="M59.2544 1.86571C56.7341 1.31577 54.2128 0.980551 51.6901 0.913741C50.8312 0.909271 50.1288 1.76454 50.1232 2.83817C50.1658 4.98569 50.3693 7.13406 50.7879 9.22986C53.8522 8.38689 56.9671 8.13468 60.0809 8.0972C60.0353 6.54017 60.2044 4.98425 60.427 3.48229C60.5916 2.78527 60.0587 2.03094 59.2544 1.86571Z" fill="url(#paint1_linear_39_2367)"/>
<path d="M72.6046 36.0772C72.0295 33.1217 71.1322 30.1645 70.4484 27.4768C68.9207 21.8858 66.9629 16.4 64.8973 11.021C63.52 7.47075 60.1504 5.09118 56.339 5.07135L54.2455 5.06045C51.9909 5.04872 49.7855 5.89617 48.0598 7.3903L46.4419 8.83131C44.5001 10.5927 41.9184 11.5456 39.288 11.5319L37.0871 11.5205L34.8862 11.509C32.2558 11.4953 29.7378 10.5159 27.7608 8.7341L26.1579 7.27633C24.4479 5.76432 22.3051 4.89424 19.9969 4.88223L18.0106 4.8719C14.1993 4.85206 10.8051 7.19644 9.39092 10.7321C7.26914 16.143 5.25472 21.5545 3.66892 27.1293C2.90341 29.8094 2.02943 32.7037 1.42329 35.7068C0.707558 39.1388 0.367592 42.5727 1.04897 45.7435C2.30631 51.7088 9.9668 54.8086 14.8733 50.7006C17.5691 48.4599 21.5655 43.864 24.3209 40.4964C26.3736 38.0376 29.387 36.6576 32.5542 36.674L37.0634 36.6975L41.5727 36.721C44.7398 36.7375 47.7385 38.2025 49.7658 40.6288C52.4862 43.9712 56.4343 48.6622 59.1066 50.9308C63.9701 55.0896 71.6625 52.0698 72.9818 46.1178C73.5888 42.9537 73.2846 39.5164 72.6046 36.0772Z" fill="url(#paint2_linear_39_2367)"/>
<path d="M72.6141 34.1986C72.039 31.243 71.1418 28.2858 70.4579 25.5981C68.9302 20.0072 66.9725 14.5213 64.9068 9.14232C63.5296 5.59209 60.1599 3.21252 56.3486 3.19268L54.255 3.18179C52.0004 3.17006 49.795 4.01751 48.0694 5.51164L46.4514 6.95265C44.5096 8.71408 41.9279 9.66693 39.2975 9.65324L37.0966 9.64179L34.8957 9.63034C32.2653 9.61665 29.7473 8.63726 27.7703 6.85544L26.1674 5.39767C24.4574 3.88566 22.3147 3.01558 20.0064 3.00357L18.0202 2.99323C14.2088 2.9734 10.8146 5.31778 9.40045 8.85347C7.27894 14.2107 5.26425 19.6759 3.67844 25.2506C2.91293 27.9307 2.03895 30.8251 1.43281 33.8281C0.71708 37.2601 0.377113 40.694 1.05849 43.8649C2.31583 49.8302 9.97632 52.93 14.8828 48.8219C17.5786 46.5813 21.5751 41.9854 24.3304 38.6177C26.3831 36.159 29.3965 34.7789 32.5637 34.7954L37.073 34.8188L41.5822 34.8423C44.7494 34.8588 47.748 36.3238 49.7753 38.7501C52.4957 42.0926 56.4438 46.7835 59.1162 49.0521C63.9796 53.211 71.672 50.1911 72.9913 44.2392C73.5983 41.0751 73.2944 37.5841 72.6141 34.1986Z" fill="url(#paint3_linear_39_2367)"/>
<path d="M72.903 40.5881C71.5918 44.9833 63.9034 47.2516 59.0346 44.1127C56.3592 42.4346 52.4046 38.9784 49.6797 36.4948C47.6493 34.659 44.6488 33.5697 41.4816 33.5533L36.9724 33.5298L32.4631 33.5063C29.296 33.4898 26.2842 34.5478 24.2348 36.3624C21.4842 38.8175 17.494 42.2324 14.8012 43.8825C9.90032 46.9169 2.23563 44.6224 0.970187 40.2138C0.811937 39.6762 0.707648 39.0851 0.65704 38.4944C0.54018 40.319 0.584363 42.1444 0.951192 43.8642C2.20853 49.8295 9.86903 52.9292 14.7755 48.8212C17.4713 46.5806 21.4678 41.9847 24.2231 38.617C26.2758 36.1583 29.2892 34.7782 32.4564 34.7947L36.9657 34.8181L41.4749 34.8416C44.6421 34.8581 47.6407 36.3231 49.668 38.7494C52.3884 42.0919 56.3365 46.7828 59.0089 49.0514C63.8723 53.2103 71.5647 50.1904 72.884 44.2385C73.2687 42.5226 73.3319 40.6977 73.2341 38.872C73.1773 39.4622 73.0672 39.9985 72.903 40.5881Z" fill="url(#paint4_linear_39_2367)"/>
<path d="M28.0079 33.3757C31.5359 33.394 34.4108 30.5489 34.4292 27.0208C34.4475 23.4928 31.6024 20.6179 28.0743 20.5995C24.5463 20.5812 21.6714 23.4263 21.653 26.9544C21.6347 30.4824 24.4798 33.3573 28.0079 33.3757Z" fill="url(#paint5_linear_39_2367)"/>
<path d="M28.0124 32.5168C31.0661 32.5327 33.5544 30.0701 33.5703 27.0164C33.5862 23.9627 31.1236 21.4744 28.0699 21.4585C25.0163 21.4426 22.5279 23.9052 22.512 26.9589C22.4961 30.0125 24.9587 32.5009 28.0124 32.5168Z" fill="url(#paint6_linear_39_2367)"/>
<path d="M27.3874 28.8629C29.9371 28.8762 32.0147 26.82 32.028 24.2703C32.0413 21.7207 29.9851 19.643 27.4354 19.6297C24.8858 19.6165 22.8081 21.6726 22.7948 24.2223C22.7816 26.772 24.8377 28.8496 27.3874 28.8629Z" fill="url(#paint7_linear_39_2367)"/>
<path d="M31.2225 24.2662C31.2334 22.1726 29.5246 20.4459 27.431 20.435C25.3374 20.4241 23.6107 22.133 23.5998 24.2265C23.5889 26.3201 25.2978 28.0468 27.3913 28.0577C29.4852 28.0149 31.2116 26.3598 31.2225 24.2662Z" fill="url(#paint8_linear_39_2367)"/>
<path d="M43.4144 33.456C46.9424 33.4743 49.8173 30.6292 49.8357 27.1012C49.854 23.5731 47.0089 20.6982 43.4808 20.6798C39.9528 20.6615 37.0779 23.5066 37.0595 27.0347C37.0412 30.5627 39.8863 33.4376 43.4144 33.456Z" fill="url(#paint9_linear_39_2367)"/>
<path d="M43.4189 32.5969C46.4726 32.6128 48.9609 30.1501 48.9768 27.0965C48.9927 24.0428 46.5301 21.5544 43.4764 21.5385C40.4228 21.5226 37.9344 23.9853 37.9185 27.0389C37.9026 30.0926 40.3652 32.581 43.4189 32.5969Z" fill="url(#paint10_linear_39_2367)"/>
<path d="M42.8473 28.9435C45.397 28.9567 47.4747 26.9006 47.488 24.3509C47.5012 21.8012 45.4451 19.7236 42.8954 19.7103C40.3457 19.697 38.2681 21.7532 38.2548 24.3029C38.2415 26.8525 40.2977 28.9302 42.8473 28.9435Z" fill="url(#paint11_linear_39_2367)"/>
<path d="M46.629 24.3466C46.6399 22.2531 44.9311 20.5263 42.8375 20.5154C40.7439 20.5045 39.0172 22.2134 39.0063 24.307C38.9954 26.4005 40.7043 28.1273 42.7978 28.1382C44.9454 28.0957 46.6181 26.4402 46.629 24.3466Z" fill="url(#paint12_linear_39_2367)"/>
<path d="M58.1809 12.1133C58.1745 13.3479 56.9885 14.3081 55.5391 14.3005C54.0897 14.293 52.914 13.2669 52.9202 12.0859C52.9266 10.8512 54.1126 9.89111 55.562 9.89865C57.0117 9.85251 58.1874 10.8786 58.1809 12.1133Z" fill="url(#paint13_linear_39_2367)"/>
<path d="M55.5412 13.871C56.6974 13.877 57.6389 13.0888 57.644 12.1104C57.6491 11.132 56.7159 10.334 55.5596 10.328C54.4034 10.322 53.4619 11.1103 53.4568 12.0886C53.4518 13.067 54.3849 13.865 55.5412 13.871Z" fill="url(#paint14_linear_39_2367)"/>
<path d="M58.1375 20.4873C58.1311 21.722 56.945 22.6821 55.4957 22.6746C54.0463 22.667 52.8706 21.6409 52.8767 20.46C52.8832 19.2253 54.0692 18.2652 55.5186 18.2727C56.968 18.2803 58.1439 19.2527 58.1375 20.4873Z" fill="url(#paint15_linear_39_2367)"/>
<path d="M55.498 22.245C56.6542 22.251 57.5957 21.4628 57.6008 20.4844C57.6059 19.5061 56.6727 18.7081 55.5164 18.7021C54.3602 18.696 53.4187 19.4843 53.4136 20.4626C53.4085 21.441 54.3417 22.239 55.498 22.245Z" fill="url(#paint16_linear_39_2367)"/>
<path d="M62.615 16.2698C62.6086 17.5045 61.4226 18.4646 59.9732 18.4571C58.5238 18.4495 57.3481 17.4234 57.3543 16.2424C57.3607 15.0078 58.5467 14.0476 59.9961 14.0552C61.4455 14.0627 62.6215 15.0351 62.615 16.2698Z" fill="url(#paint17_linear_39_2367)"/>
<path d="M62.0781 16.2671C62.073 17.2334 61.1563 18.0339 59.9753 18.0277C58.848 18.0219 57.8859 17.2116 57.8909 16.2454C57.896 15.2791 58.8127 14.4786 59.9937 14.4848C61.121 14.4906 62.0831 15.3009 62.0781 16.2671Z" fill="url(#paint18_linear_39_2367)"/>
<path d="M54.2945 16.2267C54.288 17.4614 53.102 18.4215 51.6526 18.414C50.2033 18.4064 49.0276 17.3803 49.0337 16.1993C49.0401 14.9647 50.2262 14.0046 51.6756 14.0121C53.1249 14.0196 54.3009 14.9921 54.2945 16.2267Z" fill="url(#paint19_linear_39_2367)"/>
<path d="M53.7578 16.2239C53.7527 17.1902 52.836 17.9907 51.655 17.9845C50.5277 17.9787 49.5656 17.1684 49.5706 16.2021C49.5756 15.2359 50.4924 14.4354 51.6734 14.4416C52.8007 14.4474 53.7628 15.2577 53.7578 16.2239Z" fill="url(#paint20_linear_39_2367)"/>
<path d="M17.6601 20.5988C21.0102 20.6163 23.7402 17.9146 23.7576 14.5644C23.7751 11.2143 21.0734 8.4843 17.7232 8.46687C14.3731 8.44944 11.6431 11.1511 11.6257 14.5013C11.6082 17.8514 14.3099 20.5814 17.6601 20.5988Z" fill="url(#paint21_linear_39_2367)"/>
<path d="M17.6635 19.9546C20.6579 19.9702 23.0979 17.5554 23.1135 14.561C23.1291 11.5666 20.7143 9.12656 17.7199 9.11098C14.7255 9.0954 12.2855 11.5102 12.2699 14.5046C12.2543 17.4989 14.6691 19.939 17.6635 19.9546Z" fill="url(#paint22_linear_39_2367)"/>
<path d="M20.8649 13.3683L19.3619 13.3604C19.0935 13.359 18.8799 13.1432 18.8812 12.8748L18.8891 11.3717C18.8905 11.1033 18.6769 10.8875 18.4085 10.8861L16.9591 10.8785C16.6907 10.8771 16.4748 11.0907 16.4734 11.3591L16.4656 12.8622C16.4642 13.1306 16.2484 13.3442 15.9799 13.3428L14.4769 13.335C14.2085 13.3336 13.9926 13.5472 13.9912 13.8156L13.9837 15.265C13.9823 15.5334 14.1959 15.7493 14.4643 15.7507L15.9674 15.7585C16.2358 15.7599 16.4494 15.9757 16.448 16.2441L16.4402 17.7472C16.4388 18.0156 16.6524 18.2315 16.9208 18.2329L18.3702 18.2404C18.6386 18.2418 18.8544 18.0282 18.8558 17.7598L18.8636 16.2567C18.865 15.9883 19.0809 15.7747 19.3493 15.7761L20.8524 15.7839C21.1208 15.7853 21.3366 15.5717 21.338 15.3033L21.3456 13.8539C21.2933 13.5852 21.0797 13.3694 20.8649 13.3683Z" fill="url(#paint23_linear_39_2367)"/>
<path d="M35.3529 14.5712L29.8237 14.5424C29.5553 14.541 29.3932 14.7549 29.3921 14.9696L29.3842 16.4727C29.3828 16.7411 29.5967 16.9033 29.8114 16.9044L35.3406 16.9331C35.609 16.9345 35.7712 16.7207 35.7723 16.5059L35.7801 15.0029C35.7815 14.7344 35.5676 14.5723 35.3529 14.5712Z" fill="url(#paint24_linear_39_2367)"/>
<path d="M43.5658 14.614L38.0366 14.5852C37.7682 14.5838 37.6061 14.7977 37.6049 15.0125L37.5971 16.5155C37.5957 16.7839 37.8096 16.9461 38.0243 16.9472L43.5535 16.976C43.8219 16.9774 43.9841 16.7635 43.9852 16.5488L43.993 15.0457C43.9944 14.7773 43.8342 14.6154 43.5658 14.614Z" fill="url(#paint25_linear_39_2367)"/>
<defs>
<linearGradient id="paint0_linear_39_2367" x1="19.8326" y1="-0.401675" x2="18.2211" y2="6.50518" gradientUnits="userSpaceOnUse">
<stop stop-color="#E474C6"/>
<stop offset="0.9892" stop-color="#0E7CF7"/>
</linearGradient>
<linearGradient id="paint1_linear_39_2367" x1="52.1184" y1="-0.373435" x2="55.6007" y2="6.02826" gradientUnits="userSpaceOnUse">
<stop stop-color="#E474C6"/>
<stop offset="0.9892" stop-color="#0E7CF7"/>
</linearGradient>
<linearGradient id="paint2_linear_39_2367" x1="37.1246" y1="13.9601" x2="36.937" y2="50.0233" gradientUnits="userSpaceOnUse">
<stop stop-color="#826F8C"/>
<stop offset="1" stop-color="#446381"/>
</linearGradient>
<linearGradient id="paint3_linear_39_2367" x1="37.3646" y1="4.22918" x2="36.6683" y2="70.7517" gradientUnits="userSpaceOnUse">
<stop stop-color="#826F8C"/>
<stop offset="0.9946" stop-color="#446381"/>
</linearGradient>
<linearGradient id="paint4_linear_39_2367" x1="38.6213" y1="1.18543" x2="36.8216" y2="44.2429" gradientUnits="userSpaceOnUse">
<stop stop-color="#8F4EB6"/>
<stop offset="0.9946" stop-color="#446381"/>
</linearGradient>
<linearGradient id="paint5_linear_39_2367" x1="28.2264" y1="20.3087" x2="27.9014" y2="32.2992" gradientUnits="userSpaceOnUse">
<stop stop-color="#8F4EB6"/>
<stop offset="0.9946" stop-color="#5141AE"/>
</linearGradient>
<linearGradient id="paint6_linear_39_2367" x1="28.0627" y1="23.5854" x2="27.9766" y2="40.1289" gradientUnits="userSpaceOnUse">
<stop stop-color="#6F469E"/>
<stop offset="1" stop-color="#360F6E"/>
</linearGradient>
<linearGradient id="paint7_linear_39_2367" x1="22.8341" y1="24.2012" x2="32.0303" y2="24.2491" gradientUnits="userSpaceOnUse">
<stop stop-color="#CB9DFF"/>
<stop offset="0.9892" stop-color="#796AFB"/>
</linearGradient>
<linearGradient id="paint8_linear_39_2367" x1="27.1319" y1="21.6971" x2="28.3897" y2="32.2953" gradientUnits="userSpaceOnUse">
<stop stop-color="#CB9DFF"/>
<stop offset="0.9892" stop-color="#796AFB"/>
</linearGradient>
<linearGradient id="paint9_linear_39_2367" x1="43.4097" y1="18.1086" x2="43.5076" y2="32.9462" gradientUnits="userSpaceOnUse">
<stop stop-color="#8F4EB6"/>
<stop offset="0.9946" stop-color="#5141AE"/>
</linearGradient>
<linearGradient id="paint10_linear_39_2367" x1="43.4868" y1="23.6656" x2="43.4007" y2="40.2091" gradientUnits="userSpaceOnUse">
<stop stop-color="#6F469E"/>
<stop offset="1" stop-color="#360F6E"/>
</linearGradient>
<linearGradient id="paint11_linear_39_2367" x1="38.258" y1="24.2816" x2="47.4541" y2="24.3295" gradientUnits="userSpaceOnUse">
<stop stop-color="#CB9DFF"/>
<stop offset="0.9892" stop-color="#796AFB"/>
</linearGradient>
<linearGradient id="paint12_linear_39_2367" x1="42.3323" y1="19.8933" x2="43.5902" y2="30.4915" gradientUnits="userSpaceOnUse">
<stop stop-color="#CB9DFF"/>
<stop offset="0.9892" stop-color="#796AFB"/>
</linearGradient>
<linearGradient id="paint13_linear_39_2367" x1="55.621" y1="7.61374" x2="55.5337" y2="15.9727" gradientUnits="userSpaceOnUse">
<stop stop-color="#8F4EB6"/>
<stop offset="0.9946" stop-color="#5141AE"/>
</linearGradient>
<linearGradient id="paint14_linear_39_2367" x1="54.9246" y1="8.45652" x2="56.1155" y2="15.1153" gradientUnits="userSpaceOnUse">
<stop stop-color="#D2F9FF"/>
<stop offset="0.9946" stop-color="#618DD6"/>
</linearGradient>
<linearGradient id="paint15_linear_39_2367" x1="55.6092" y1="16.3536" x2="55.4887" y2="22.6991" gradientUnits="userSpaceOnUse">
<stop stop-color="#8F4EB6"/>
<stop offset="0.9946" stop-color="#5141AE"/>
</linearGradient>
<linearGradient id="paint16_linear_39_2367" x1="55.042" y1="17.7861" x2="55.9779" y2="22.9554" gradientUnits="userSpaceOnUse">
<stop stop-color="#D2F9FF"/>
<stop offset="0.9946" stop-color="#618DD6"/>
</linearGradient>
<linearGradient id="paint17_linear_39_2367" x1="60.0623" y1="10.8716" x2="59.9379" y2="17.9612" gradientUnits="userSpaceOnUse">
<stop stop-color="#8F4EB6"/>
<stop offset="0.9946" stop-color="#5141AE"/>
</linearGradient>
<linearGradient id="paint18_linear_39_2367" x1="59.0055" y1="13.1849" x2="60.8997" y2="19.2346" gradientUnits="userSpaceOnUse">
<stop stop-color="#D2F9FF"/>
<stop offset="0.9946" stop-color="#618DD6"/>
</linearGradient>
<linearGradient id="paint19_linear_39_2367" x1="51.6061" y1="12.2801" x2="51.7032" y2="18.8456" gradientUnits="userSpaceOnUse">
<stop stop-color="#8F4EB6"/>
<stop offset="0.9946" stop-color="#5141AE"/>
</linearGradient>
<linearGradient id="paint20_linear_39_2367" x1="51.1326" y1="13.7397" x2="52.2436" y2="18.9101" gradientUnits="userSpaceOnUse">
<stop stop-color="#D2F9FF"/>
<stop offset="0.9946" stop-color="#618DD6"/>
</linearGradient>
<linearGradient id="paint21_linear_39_2367" x1="17.4531" y1="3.99267" x2="17.8781" y2="23.2523" gradientUnits="userSpaceOnUse">
<stop stop-color="#8F4EB6"/>
<stop offset="0.9946" stop-color="#5141AE"/>
</linearGradient>
<linearGradient id="paint22_linear_39_2367" x1="20.5386" y1="3.26124" x2="16.07" y2="20.9198" gradientUnits="userSpaceOnUse">
<stop stop-color="#E474C6"/>
<stop offset="0.9892" stop-color="#0E7CF7"/>
</linearGradient>
<linearGradient id="paint23_linear_39_2367" x1="15.8941" y1="8.66018" x2="18.6482" y2="17.6905" gradientUnits="userSpaceOnUse">
<stop stop-color="#D2F9FF"/>
<stop offset="0.9946" stop-color="#618DD6"/>
</linearGradient>
<linearGradient id="paint24_linear_39_2367" x1="32.5992" y1="13.9842" x2="32.4798" y2="20.111" gradientUnits="userSpaceOnUse">
<stop stop-color="#E474C6"/>
<stop offset="0.9892" stop-color="#7142A2"/>
</linearGradient>
<linearGradient id="paint25_linear_39_2367" x1="40.8424" y1="14.1449" x2="40.723" y2="20.2718" gradientUnits="userSpaceOnUse">
<stop stop-color="#E474C6"/>
<stop offset="0.9892" stop-color="#7142A2"/>
</linearGradient>
</defs>
</svg>
